<?xml version="1.0" standalone="no"?>
<!DOCTYPE svg PUBLIC "-//W3C//DTD SVG 20010904//EN"
 "http://www.w3.org/TR/2001/REC-SVG-20010904/DTD/svg10.dtd">
<svg version="1.0" xmlns="http://www.w3.org/2000/svg"
 width="987.000000pt" height="464.000000pt" viewBox="0 0 987.000000 464.000000"
 preserveAspectRatio="xMidYMid meet">
<metadata>
Created by potrace 1.16, written by Peter Selinger 2001-2019
</metadata>
<g transform="translate(0.000000,464.000000) scale(0.100000,-0.100000)"
fill="#000000" stroke="none">
<path d="M2232 3208 l3 -1433 28 -55 c33 -64 59 -94 108 -125 57 -37 134 -55
231 -55 l88 0 0 120 0 120 -84 0 c-46 0 -92 3 -101 6 -46 18 -45 -28 -45 1459
l0 1395 -115 0 -115 0 2 -1432z"/>
<path d="M6015 4605 c-122 -22 -220 -60 -357 -137 -50 -29 -141 -102 -204
-166 -128 -130 -205 -267 -267 -477 -21 -70 -21 -80 -24 -1807 l-4 -1738 115
0 114 0 4 613 c5 673 3 646 70 798 80 177 258 330 463 395 86 27 324 27 410 0
236 -75 406 -241 498 -483 21 -57 22 -69 25 -691 l3 -633 117 3 117 3 3 530
c2 312 -1 577 -7 645 -32 354 -230 641 -547 796 -39 19 -93 41 -120 50 -69 21
-217 44 -294 44 -72 0 -221 -22 -290 -44 -129 -39 -279 -128 -387 -229 l-63
-59 0 446 c0 245 2 446 4 446 3 0 40 -35 83 -77 201 -199 447 -298 733 -297
283 1 525 102 729 303 411 406 413 1067 6 1474 -155 155 -346 255 -559 293
-98 17 -275 17 -371 -1z m320 -230 c147 -27 242 -67 350 -148 239 -180 363
-465 325 -745 -36 -265 -187 -485 -423 -616 -230 -129 -534 -129 -764 0 -197
110 -338 286 -404 504 -18 61 -22 99 -22 205 0 145 13 210 68 332 153 337 517
533 870 468z"/>
<path d="M8515 4136 c-79 -29 -152 -137 -235 -345 l-34 -84 32 -27 c60 -50
262 -142 443 -203 197 -66 459 -117 605 -117 l93 0 7 36 c11 58 -15 405 -35
473 -30 98 -127 155 -291 170 -57 6 -105 9 -107 8 -6 -7 249 -168 275 -173 37
-7 43 -24 10 -24 -34 1 -95 31 -215 108 -141 90 -235 137 -325 161 -106 29
-176 34 -223 17z"/>
<path d="M7961 3676 c-91 -30 -111 -78 -67 -165 111 -218 589 -503 1041 -620
197 -50 295 -64 460 -65 148 -1 163 1 208 23 156 77 126 215 -82 372 -35 27
-67 49 -71 49 -4 0 -11 -26 -15 -57 -11 -93 -16 -100 -81 -113 -98 -20 -376
18 -612 84 -314 89 -602 237 -602 311 0 13 13 59 30 101 16 43 27 80 24 83
-12 13 -191 10 -233 -3z"/>
<path d="M775 3650 c-256 -64 -467 -214 -610 -435 -94 -146 -136 -266 -156
-450 -52 -476 238 -927 692 -1074 159 -51 294 -61 492 -35 l47 7 0 -407 0
-406 261 0 c223 0 260 -2 256 -14 -3 -8 -11 -34 -17 -58 -27 -98 -124 -253
-206 -328 -160 -146 -326 -213 -524 -213 -212 0 -404 83 -548 237 -142 152
-205 297 -218 503 l-7 103 -115 0 -115 0 6 -127 c13 -261 116 -484 305 -665
405 -386 994 -383 1388 7 194 192 303 444 304 703 l0 82 -270 0 -270 0 0 339
0 339 71 42 c80 47 200 156 264 241 305 395 265 983 -91 1342 -130 132 -292
221 -490 271 -88 23 -354 20 -449 -4z m469 -245 c117 -40 210 -100 301 -190
133 -132 203 -276 226 -463 61 -504 -367 -935 -861 -867 -306 42 -543 246
-642 551 -19 60 -22 90 -22 229 0 137 3 169 22 224 93 271 286 457 552 530 63
18 97 20 210 17 116 -3 146 -7 214 -31z"/>
<path d="M890 2848 c-154 -93 -141 -324 22 -398 147 -67 318 39 318 196 0 141
-88 234 -223 234 -53 0 -71 -5 -117 -32z"/>
<path d="M8216 3635 c-8 -19 -23 -60 -33 -91 l-18 -57 43 -37 c46 -42 178
-109 320 -164 325 -127 825 -207 861 -138 8 15 31 143 31 170 0 5 -62 12 -137
15 -188 8 -418 59 -650 143 -119 43 -286 121 -347 163 -24 17 -47 31 -50 31
-3 0 -12 -16 -20 -35z"/>
<path d="M2814 3393 c-3 -16 -13 -55 -22 -88 -24 -95 -21 -368 6 -466 59 -218
137 -360 274 -499 208 -210 493 -313 773 -280 414 49 742 355 836 779 35 158
21 420 -30 555 l-11 26 -120 0 c-66 0 -120 -2 -120 -5 0 -2 9 -28 19 -57 41
-111 54 -203 48 -337 -7 -179 -50 -303 -151 -438 -130 -173 -320 -278 -521
-290 -120 -7 -208 6 -301 43 -229 90 -402 292 -466 544 -29 116 -27 319 5 425
14 44 28 88 32 98 7 16 -3 17 -119 17 l-126 0 -6 -27z"/>
<path d="M7865 3324 c-92 -71 -132 -112 -197 -198 -75 -100 -130 -217 -163
-342 -35 -131 -37 -336 -6 -456 71 -274 241 -491 488 -624 120 -65 224 -91
403 -104 125 -8 139 -12 207 -45 122 -60 204 -161 232 -286 13 -57 13 -201 0
-259 -5 -25 -28 -83 -51 -129 -85 -178 -276 -315 -516 -372 -151 -35 -326 -24
-511 32 -9 3 -25 -25 -51 -91 l-38 -94 37 -17 c143 -64 431 -80 616 -34 417
102 677 362 731 731 14 94 14 114 0 211 -26 174 -79 285 -181 382 -31 29 -55
54 -53 55 2 2 30 17 63 36 243 134 419 377 468 646 l13 69 257 3 257 2 0 105
0 105 -257 2 -258 3 -8 61 -8 61 -117 15 c-64 8 -118 14 -119 14 -1 -1 7 -33
18 -71 10 -38 19 -73 19 -77 0 -5 -272 -8 -605 -8 l-605 0 0 -105 0 -105 605
0 606 0 -7 -37 c-31 -173 -165 -371 -317 -470 -104 -68 -282 -123 -396 -123
-61 0 -205 28 -266 52 -158 62 -312 204 -388 360 -105 214 -103 434 5 658 44
91 62 116 137 191 47 47 113 100 145 119 l59 33 -29 21 c-16 11 -54 44 -85 73
-31 29 -60 53 -65 53 -5 0 -36 -21 -69 -46z"/>
<path d="M8070 2988 c-91 -48 -86 -175 8 -215 32 -13 42 -14 77 -2 85 30 110
129 47 191 -34 34 -94 46 -132 26z"/>
<path d="M3650 1641 c0 -134 -14 -244 -41 -316 -50 -131 -113 -228 -217 -329
-174 -169 -427 -247 -647 -201 -38 8 -73 15 -76 15 -15 0 -75 -209 -63 -220 5
-4 47 -15 94 -24 361 -69 742 84 969 388 37 50 81 118 98 151 46 88 90 231
105 340 l12 95 453 0 453 0 0 120 0 120 -570 0 -570 0 0 -139z"/>
</g>
</svg>
